<svg id="logo-eps_black" data-name="logo-eps black" xmlns="http://www.w3.org/2000/svg" width="235.09" height="110" viewBox="0 0 235.09 110">
  <path id="Path_20" data-name="Path 20" d="M135.2,37.275c-2.592.993-9.471,3.677-22.58,9.076-21.284,8.769-14.786,24.224-6.47,24.3-1.834,1.536-5.555,3.439-11.175.64-7.384-3.676-8.184-16.466,2.614-22.55,8.184-4.612,32.357-10.514,37.611-11.766v-.742c-5.454-2.635-31.619-15.149-46.324-20.1C73.075,10.82,60.215,8.731,53.1,20.3c-5.02,8.162-2.566,16.941,2.412,22.84,3.938,4.662,6.522,5.6,6.522,5.6H62.01a29.227,29.227,0,0,1-12.79-9.878C43.732,31.333,38.817,14.7,50.8,5.217c13.6-10.766,33.381-3,48.347,6.605,12.444,7.991,31.13,20.767,36.052,24.137m-.062,42.523c-16.013,20.134-47.175,18.778-67.761-1.12-9.34-9.032-19.723-17-28.1-20.336a71.723,71.723,0,0,0-14.8-3.873h.062c-.3-.046-2.388-.369-2.866-.446-.522-.077-.028-.473-.028-.473s6.268-1.54,6.912-1.7c0,0,1.841-.607,2.041.523.324,1.8-2.931,1.526-3.407,1.593,2.046.524,4.254.364,4.938-.44a1.256,1.256,0,0,0-.253-2.1s-.7-.176.708-1.349a6.508,6.508,0,0,1,3.656-1.077c-1.912-.059-3.648-.112-5.076-.134-5.5-.1-12.477-.523-14.893,1.3-2.135,1.612-1.028,1.973-1.028,1.973S18,52,15.963,53.743c-1.285,1.107-4.295,1.307-6.625.828.7-.1,4.185-.379,4.457-2.038s-2.48-1.066-2.48-1.066c-.846.1-11.036,2.461-11.036,2.461s-.714.58.04.7c.7.107,3.752.58,4.2.649H4.426a125.658,125.658,0,0,1,18.668,3.4c26.6,7.371,23.63,16.358,45.884,35.638,15.439,13.375,39.044,16.807,66.219,6.3" transform="translate(0.026 -0.006)" fill="#fff"/>
  <path id="Path_21" data-name="Path 21" d="M1484.12,345.089h-3.667l-2.3-9.632c-.144-.569-.272-1.16-.387-1.768s-.2-1.085-.254-1.442c-.037.358-.112.841-.226,1.458s-.248,1.2-.389,1.753l-2.354,9.632h-3.508l-3.905-18.73h3.905l1.633,9.124q.134.7.269,1.594c.088.6.152,1.093.185,1.485.073-.392.171-.887.3-1.485s.239-1.128.345-1.594l2.2-9.124h3.265l2.218,9.124c.107.466.225,1,.35,1.594s.222,1.093.3,1.485c.033-.392.1-.893.186-1.5s.175-1.131.264-1.58l1.635-9.124h3.851l-3.906,18.73Z" transform="translate(-1317.007 -292.979)" fill="#fff"/>
  <path id="Path_22" data-name="Path 22" d="M1685.723,373.574a7.4,7.4,0,0,0-1.15-2.342,5.289,5.289,0,0,0-4.361-2.152,5.6,5.6,0,0,0-2.474.535,5.892,5.892,0,0,0-1.98,1.51,7.336,7.336,0,0,0-1.326,2.329,8.786,8.786,0,0,0-.48,2.956,9.32,9.32,0,0,0,.463,3.008,6.637,6.637,0,0,0,1.317,2.3,5.8,5.8,0,0,0,2.063,1.47,6.893,6.893,0,0,0,2.74.521,7.059,7.059,0,0,0,2.793-.587,5.517,5.517,0,0,0,2.235-1.687l-2.621-2.193a2.8,2.8,0,0,1-1.02.72,3.607,3.607,0,0,1-2.393.12,2.681,2.681,0,0,1-.9-.453,2.425,2.425,0,0,1-.666-.817,3.165,3.165,0,0,1-.324-1.232h8.426a4.85,4.85,0,0,0,.042-.491c.01-.189.014-.417.014-.684a9.808,9.808,0,0,0-.4-2.836Zm-8.025,1.23a3.27,3.27,0,0,1,.7-1.793,1.975,1.975,0,0,1,1.613-.72,2.507,2.507,0,0,1,1.08.216,2.269,2.269,0,0,1,.766.573,2.669,2.669,0,0,1,.47.8,3.879,3.879,0,0,1,.212.922H1677.7Z" transform="translate(-1502.639 -331.323)" fill="#fff"/>
  <path id="Path_23" data-name="Path 23" d="M1817.631,379.327a4.205,4.205,0,0,1-.456,2.045,3.72,3.72,0,0,1-1.232,1.365,5.133,5.133,0,0,1-1.819.749,10.363,10.363,0,0,1-2.22.227,11.543,11.543,0,0,1-3.224-.442,9.49,9.49,0,0,1-2.659-1.191l1.229-2.808a10.692,10.692,0,0,0,2.314.948,9.421,9.421,0,0,0,2.555.336,2.84,2.84,0,0,0,1.485-.268.906.906,0,0,0,.387-.8.9.9,0,0,0-.439-.775,6.462,6.462,0,0,0-1.621-.641q-1.256-.379-2.288-.763a7.544,7.544,0,0,1-1.753-.91,3.592,3.592,0,0,1-1.107-1.271,4.051,4.051,0,0,1-.388-1.875,3.946,3.946,0,0,1,.414-1.885,3.546,3.546,0,0,1,1.164-1.3,5.263,5.263,0,0,1,1.779-.747,9.838,9.838,0,0,1,2.262-.241,10.154,10.154,0,0,1,2.7.373,11.768,11.768,0,0,1,2.49.991l-1.176,2.918a9.5,9.5,0,0,0-2.13-.845,7.871,7.871,0,0,0-1.966-.28,3.346,3.346,0,0,0-1.51.227.741.741,0,0,0-.387.683.712.712,0,0,0,.106.388,1.085,1.085,0,0,0,.414.347,6.589,6.589,0,0,0,.885.389c.38.142.883.309,1.51.506.622.216,1.222.439,1.791.667a6.079,6.079,0,0,1,1.5.858,3.752,3.752,0,0,1,1.016,1.245,3.9,3.9,0,0,1,.374,1.781" transform="translate(-1621.192 -331.323)" fill="#fff"/>
  <path id="Path_24" data-name="Path 24" d="M1938.683,337.743a3.519,3.519,0,0,1-1.232.613,5.434,5.434,0,0,1-1.63.241,3.839,3.839,0,0,1-1.553-.308,3.243,3.243,0,0,1-1.176-.869,4.015,4.015,0,0,1-.75-1.338,5.164,5.164,0,0,1-.269-1.712v-6.633h-2.353v-3.48h2.353v-3.612l3.694-1.846v5.457h3.372v3.48h-3.372v5.644a1.923,1.923,0,0,0,.347,1.35,1.422,1.422,0,0,0,1.02.334,1.979,1.979,0,0,0,.951-.24,7.316,7.316,0,0,0,1.136-.831l-.537,3.748Z" transform="translate(-1732.329 -286.194)" fill="#fff"/>
  <path id="Path_25" data-name="Path 25" d="M1477.57,602.937V584.21h3.746v15.034h9.39v3.693Z" transform="translate(-1326.358 -524.456)" fill="#fff"/>
  <path id="Path_26" data-name="Path 26" d="M1626.807,631.294a7.3,7.3,0,0,0-1.324-2.328,5.78,5.78,0,0,0-2.019-1.511,6.054,6.054,0,0,0-2.54-.535,5.96,5.96,0,0,0-2.529.535,5.839,5.839,0,0,0-2.009,1.511,7.317,7.317,0,0,0-1.324,2.328,9.334,9.334,0,0,0,0,5.914,7.121,7.121,0,0,0,1.324,2.314,5.914,5.914,0,0,0,4.538,2.032,6.111,6.111,0,0,0,2.54-.532,5.907,5.907,0,0,0,2.019-1.5,7.141,7.141,0,0,0,1.324-2.314,9.331,9.331,0,0,0,0-5.914Zm-3.426,4.372a4.036,4.036,0,0,1-.48,1.213,2.533,2.533,0,0,1-.818.835,2.353,2.353,0,0,1-3.133-.753,5.294,5.294,0,0,1-.627-2.707,5.375,5.375,0,0,1,.627-2.724,2.343,2.343,0,0,1,3.951.014,5.262,5.262,0,0,1,.641,2.71,6.2,6.2,0,0,1-.161,1.412Z" transform="translate(-1449.346 -562.785)" fill="#fff"/>
  <path id="Path_27" data-name="Path 27" d="M1766.822,641.26v-7.6a3.959,3.959,0,0,0-.617-2.569,2.229,2.229,0,0,0-1.763-.692,2.285,2.285,0,0,0-1.778.682,3.734,3.734,0,0,0-.63,2.5v7.676h-3.694V627.216h3.694v.934a3.955,3.955,0,0,1,1.322-.868,4.978,4.978,0,0,1,1.968-.362,4.534,4.534,0,0,1,3.931,1.726,7.815,7.815,0,0,1,1.257,4.7v7.917h-3.693Z" transform="translate(-1578.393 -562.785)" fill="#fff"/>
  <path id="Path_28" data-name="Path 28" d="M1904.018,578.47v4.415a4.424,4.424,0,0,0-1.271-.779,4.349,4.349,0,0,0-1.7-.32,5.039,5.039,0,0,0-2.327.523,4.762,4.762,0,0,0-1.709,1.47,6.831,6.831,0,0,0-1.059,2.261,10.923,10.923,0,0,0-.365,2.892,11.618,11.618,0,0,0,.434,3.38,6.832,6.832,0,0,0,1.173,2.329,4.554,4.554,0,0,0,1.741,1.352,5.269,5.269,0,0,0,2.112.426,3.764,3.764,0,0,0,1.727-.36,6.286,6.286,0,0,0,1.242-.818v.883h3.694v-19.5l-3.694,1.848Zm0,13.295a3.338,3.338,0,0,1-.906.855,2.519,2.519,0,0,1-1.365.324,2.02,2.02,0,0,1-1.751-.965,5.7,5.7,0,0,1-.657-3.13q0-3.584,2.2-3.584a2.9,2.9,0,0,1,2.484,1.2v5.3Z" transform="translate(-1701.704 -517.645)" fill="#fff"/>
  <path id="Path_29" data-name="Path 29" d="M2046.658,631.294a7.3,7.3,0,0,0-1.324-2.328,5.788,5.788,0,0,0-2.021-1.511,6.047,6.047,0,0,0-2.539-.535,5.963,5.963,0,0,0-2.529.535,5.853,5.853,0,0,0-2.01,1.511,7.354,7.354,0,0,0-1.324,2.328,9.352,9.352,0,0,0,0,5.914,7.176,7.176,0,0,0,1.324,2.314,5.919,5.919,0,0,0,4.539,2.032,6.1,6.1,0,0,0,2.539-.532,5.925,5.925,0,0,0,2.021-1.5,7.139,7.139,0,0,0,1.324-2.314,9.354,9.354,0,0,0,0-5.914Zm-3.426,4.372a4.122,4.122,0,0,1-.481,1.213,2.515,2.515,0,0,1-.818.835,2.35,2.35,0,0,1-3.131-.753,5.272,5.272,0,0,1-.627-2.707,5.363,5.363,0,0,1,.627-2.724,2.341,2.341,0,0,1,3.948.014,5.252,5.252,0,0,1,.641,2.71,6.26,6.26,0,0,1-.16,1.412Z" transform="translate(-1826.283 -562.785)" fill="#fff"/>
  <path id="Path_30" data-name="Path 30" d="M2186.729,641.26v-7.6a3.981,3.981,0,0,0-.614-2.569,2.246,2.246,0,0,0-1.767-.692,2.3,2.3,0,0,0-1.779.682,3.737,3.737,0,0,0-.625,2.5v7.676h-3.694V627.216h3.694v.934a3.866,3.866,0,0,1,1.319-.868,5,5,0,0,1,1.97-.362,4.532,4.532,0,0,1,3.931,1.726,7.845,7.845,0,0,1,1.256,4.7v7.917h-3.691Z" transform="translate(-1955.33 -562.785)" fill="#fff"/>
  <path id="Path_31" data-name="Path 31" d="M1479.631,844.944a3.93,3.93,0,0,0-1.325-1.5,3.744,3.744,0,0,0-2.1-.536,3.948,3.948,0,0,0-1.875.443,4.025,4.025,0,0,0-1.389,1.23,5.828,5.828,0,0,0-.855,1.874,8.965,8.965,0,0,0-.3,2.393,8.534,8.534,0,0,0,.3,2.343,5.769,5.769,0,0,0,.867,1.885,4.142,4.142,0,0,0,1.405,1.256,3.825,3.825,0,0,0,1.875.456,3.621,3.621,0,0,0,2.1-.562,5.716,5.716,0,0,0,1.566-1.819l3.158,1.87a7.477,7.477,0,0,1-2.663,3.118,7.612,7.612,0,0,1-4.265,1.111,7.97,7.97,0,0,1-3.348-.683,7.389,7.389,0,0,1-2.58-1.939,8.811,8.811,0,0,1-1.672-3.035,12.735,12.735,0,0,1-.587-4,11.733,11.733,0,0,1,.611-3.92,9.292,9.292,0,0,1,1.712-3.051,7.728,7.728,0,0,1,2.622-1.976,7.888,7.888,0,0,1,3.372-.712,8.64,8.64,0,0,1,2.379.308,7.218,7.218,0,0,1,1.915.856,6.538,6.538,0,0,1,1.472,1.312,8.979,8.979,0,0,1,1.084,1.671l-3.478,1.607Z" transform="translate(-1317.719 -753.378)" fill="#fff"/>
  <path id="Path_32" data-name="Path 32" d="M1637.98,889.173a7.189,7.189,0,0,0-1.328-2.328,5.775,5.775,0,0,0-2.018-1.511,6.029,6.029,0,0,0-2.54-.534,5.963,5.963,0,0,0-2.53.534,5.855,5.855,0,0,0-2,1.511,7.163,7.163,0,0,0-1.325,2.328,9.269,9.269,0,0,0,0,5.911,6.993,6.993,0,0,0,1.325,2.316,5.917,5.917,0,0,0,4.534,2.033,6.076,6.076,0,0,0,2.54-.535,5.88,5.88,0,0,0,2.018-1.5,7.007,7.007,0,0,0,1.328-2.316,9.327,9.327,0,0,0,0-5.911Zm-3.426,4.372a4.141,4.141,0,0,1-.48,1.214,2.528,2.528,0,0,1-.818.833,2.148,2.148,0,0,1-1.164.31,2.115,2.115,0,0,1-1.963-1.063,5.251,5.251,0,0,1-.633-2.71,5.32,5.32,0,0,1,.633-2.721,2.1,2.1,0,0,1,1.963-1.078,2.145,2.145,0,0,1,1.981,1.093,5.268,5.268,0,0,1,.642,2.707A6.21,6.21,0,0,1,1634.554,893.544Z" transform="translate(-1459.373 -794.303)" fill="#fff"/>
  <path id="Path_33" data-name="Path 33" d="M1771.12,854.024V836.365l3.692-1.845v19.5Z" transform="translate(-1589.84 -749.188)" fill="#fff"/>
  <path id="Path_34" data-name="Path 34" d="M1836.78,854.024V836.365l3.69-1.845v19.5Z" transform="translate(-1648.78 -749.188)" fill="#fff"/>
  <path id="Path_35" data-name="Path 35" d="M1906.056,889.294a7.44,7.44,0,0,0-1.155-2.343,5.269,5.269,0,0,0-4.358-2.151,5.58,5.58,0,0,0-2.474.534,5.891,5.891,0,0,0-1.98,1.511,7.309,7.309,0,0,0-1.328,2.328,8.81,8.81,0,0,0-.481,2.956,9.43,9.43,0,0,0,.463,3.01,6.738,6.738,0,0,0,1.316,2.3,5.865,5.865,0,0,0,2.066,1.472,6.878,6.878,0,0,0,2.739.521,7.058,7.058,0,0,0,2.794-.588,5.513,5.513,0,0,0,2.234-1.687l-2.619-2.193a2.831,2.831,0,0,1-1.019.722,3.434,3.434,0,0,1-1.39.268,3.342,3.342,0,0,1-1.006-.151,2.657,2.657,0,0,1-.895-.452,2.393,2.393,0,0,1-.669-.817,3.114,3.114,0,0,1-.323-1.233h8.427c.017-.142.033-.308.04-.49s.015-.419.015-.686a9.8,9.8,0,0,0-.4-2.835Zm-8.03,1.232a3.279,3.279,0,0,1,.7-1.793,1.969,1.969,0,0,1,1.615-.721,2.537,2.537,0,0,1,1.077.214,2.275,2.275,0,0,1,.767.574,2.7,2.7,0,0,1,.47.8,3.862,3.862,0,0,1,.214.923Z" transform="translate(-1700.529 -794.303)" fill="#fff"/>
  <path id="Path_36" data-name="Path 36" d="M2035.057,885.1v.8a4.519,4.519,0,0,0-1.27-.778,4.379,4.379,0,0,0-1.7-.318,5.074,5.074,0,0,0-2.327.519,4.8,4.8,0,0,0-1.709,1.473,6.861,6.861,0,0,0-1.059,2.26,10.892,10.892,0,0,0-.359,2.891,11.7,11.7,0,0,0,.426,3.382,6.766,6.766,0,0,0,1.179,2.329,4.536,4.536,0,0,0,1.74,1.35,5.222,5.222,0,0,0,2.109.429,3.8,3.8,0,0,0,1.73-.361,6.38,6.38,0,0,0,1.243-.818,5.012,5.012,0,0,1-.162,1.365,1.938,1.938,0,0,1-.586.939,3.044,3.044,0,0,1-1.136.586,12.665,12.665,0,0,1-1.781.374l1.311,2.785a9.285,9.285,0,0,0,3.023-.749,4.744,4.744,0,0,0,1.848-1.486,5.6,5.6,0,0,0,.923-2.247,16.314,16.314,0,0,0,.254-3.062V885.1h-3.693Zm0,9.684a3.4,3.4,0,0,1-.91.856,2.51,2.51,0,0,1-1.362.323,2.028,2.028,0,0,1-1.754-.963,5.715,5.715,0,0,1-.657-3.132q0-3.582,2.2-3.583a2.9,2.9,0,0,1,2.486,1.2v5.3Z" transform="translate(-1819.284 -794.312)" fill="#fff"/>
  <path id="Path_37" data-name="Path 37" d="M2177.23,889.294a7.441,7.441,0,0,0-1.15-2.343,5.285,5.285,0,0,0-4.362-2.151,5.6,5.6,0,0,0-2.474.534,5.984,5.984,0,0,0-1.982,1.511,7.313,7.313,0,0,0-1.322,2.328,8.707,8.707,0,0,0-.481,2.956,9.342,9.342,0,0,0,.463,3.01,6.627,6.627,0,0,0,1.316,2.3,5.883,5.883,0,0,0,2.061,1.472,6.91,6.91,0,0,0,2.743.521,7.05,7.05,0,0,0,2.793-.588,5.522,5.522,0,0,0,2.236-1.687l-2.623-2.193a2.829,2.829,0,0,1-1.019.722,3.438,3.438,0,0,1-1.389.268,3.338,3.338,0,0,1-1.007-.151,2.637,2.637,0,0,1-.895-.452,2.441,2.441,0,0,1-.669-.817,3.128,3.128,0,0,1-.323-1.233h8.426c.02-.142.034-.308.042-.49s.014-.419.014-.686a9.8,9.8,0,0,0-.4-2.835Zm-8.025,1.232a3.263,3.263,0,0,1,.7-1.793,1.963,1.963,0,0,1,1.611-.721,2.568,2.568,0,0,1,1.08.214,2.272,2.272,0,0,1,.767.574,2.652,2.652,0,0,1,.47.8,3.814,3.814,0,0,1,.213.923h-4.841Z" transform="translate(-1943.853 -794.303)" fill="#fff"/>
</svg>
